<svg width="592" height="387" viewBox="0 0 592 387" fill="none" xmlns="http://www.w3.org/2000/svg">
<rect x="66" y="243" width="457.422" height="12" fill="#F19A7E"/>
<path d="M74.0006 249.501V256.001H68.7916V245.001L527.001 246.333V250.833L74.0006 249.501Z" fill="#EC725B"/>
<rect x="68" y="245" width="459" height="11" stroke="#7E073F" stroke-width="4"/>
<rect x="66" y="190" width="457.422" height="12" fill="#F19A7E"/>
<path d="M74.0006 196.501V203.001H68.7916V192.001L527.001 193.333V197.833L74.0006 196.501Z" fill="#EC725B"/>
<rect x="68" y="192" width="459" height="11" stroke="#7E073F" stroke-width="4"/>
<rect x="66" y="137" width="457.422" height="12" fill="#F19A7E"/>
<path d="M74.0006 143.501V150.001H68.7916V139.001L527.001 140.333V144.833L74.0006 143.501Z" fill="#EC725B"/>
<rect x="68" y="139" width="459" height="11" stroke="#7E073F" stroke-width="4"/>
<rect x="66" y="84" width="457.422" height="12" fill="#F19A7E"/>
<path d="M74.0006 90.501V97.001H68.7916V86.001L527.001 87.333V91.833L74.0006 90.501Z" fill="#EC725B"/>
<rect x="68" y="86" width="459" height="11" stroke="#7E073F" stroke-width="4"/>
<rect x="68" y="31" width="457.422" height="12" fill="#F19A7E"/>
<path d="M76.0006 37.501V44.001H70.7916V33.001L529.001 34.333V38.833L76.0006 37.501Z" fill="#EC725B"/>
<rect x="70" y="33" width="459" height="11" stroke="#7E073F" stroke-width="4"/>
<rect x="66" y="296" width="457.422" height="12" fill="#F19A7E"/>
<path d="M74.0006 302.501V309.001H68.7916V298.001H524.03V302.501H74.0006Z" fill="#EC725B"/>
<rect x="68" y="298" width="459" height="11" stroke="#7E073F" stroke-width="4"/>
<path d="M168.48 297.794L158.031 288.181L152.18 293.196L140.895 303.645L136.297 312.005L143.403 317.856L152.18 321.618L163.047 317.856L168.48 308.661V297.794Z" fill="#209C9C"/>
<path d="M162.216 297.378C162.216 306.149 154.544 313.26 145.08 313.26C141.334 313.26 137.869 312.146 135.049 310.256C132.228 308.366 133.791 306.439 133.791 301.139C135.049 294.032 138.956 286.926 148.42 286.926C154.187 286.926 157.063 285.588 159.054 288.182C161.045 290.777 162.216 293.951 162.216 297.378Z" fill="#25ABAC"/>
<ellipse cx="151.762" cy="297.793" rx="6.26946" ry="5.43353" fill="#63C7BF"/>
<circle cx="151.763" cy="303.644" r="16.6443" stroke="#7E073F" stroke-width="6"/>
<path d="M264.361 297.794L253.912 288.181L248.061 293.196L236.776 303.645L232.178 312.005L239.283 317.856L248.061 321.618L258.928 317.856L264.361 308.661V297.794Z" fill="#209C9C"/>
<path d="M258.097 297.378C258.097 306.149 250.425 313.26 240.961 313.26C237.215 313.26 233.749 312.146 230.929 310.256C228.109 308.366 229.672 306.439 229.672 301.139C230.929 294.032 234.837 286.926 244.301 286.926C250.068 286.926 252.943 285.588 254.935 288.182C256.926 290.777 258.097 293.951 258.097 297.378Z" fill="#25ABAC"/>
<ellipse cx="247.643" cy="297.793" rx="6.26946" ry="5.43353" fill="#63C7BF"/>
<circle cx="247.644" cy="303.644" r="16.6443" stroke="#7E073F" stroke-width="6"/>
<path d="M216.599 297.794L206.15 288.181L200.298 293.196L189.013 303.645L184.416 312.005L191.521 317.856L200.298 321.618L211.165 317.856L216.599 308.661V297.794Z" fill="#209C9C"/>
<path d="M210.337 297.378C210.337 306.149 202.664 313.26 193.2 313.26C189.454 313.26 185.989 312.146 183.169 310.256C180.348 308.366 181.912 306.439 181.912 301.139C183.169 294.032 187.076 286.926 196.54 286.926C202.307 286.926 205.183 285.588 207.174 288.182C209.166 290.777 210.337 293.951 210.337 297.378Z" fill="#25ABAC"/>
<ellipse cx="199.882" cy="297.793" rx="6.26946" ry="5.43353" fill="#63C7BF"/>
<circle cx="199.881" cy="303.644" r="16.6443" stroke="#7E073F" stroke-width="6"/>
<path d="M312.48 297.794L302.031 288.181L296.179 293.196L284.894 303.645L280.297 312.005L287.402 317.856L296.179 321.618L307.046 317.856L312.48 308.661V297.794Z" fill="#209C9C"/>
<path d="M306.218 297.378C306.218 306.149 298.545 313.26 289.081 313.26C285.335 313.26 281.87 312.146 279.05 310.256C276.229 308.366 277.793 306.439 277.793 301.139C279.05 294.032 282.957 286.926 292.421 286.926C298.188 286.926 301.064 285.588 303.055 288.182C305.047 290.777 306.218 293.951 306.218 297.378Z" fill="#25ABAC"/>
<ellipse cx="295.763" cy="297.793" rx="6.26946" ry="5.43353" fill="#63C7BF"/>
<circle cx="295.762" cy="303.644" r="16.6443" stroke="#7E073F" stroke-width="6"/>
<path d="M120.364 297.794L109.915 288.181L104.063 293.196L92.7781 303.645L88.1805 312.005L95.2859 317.856L104.063 321.618L114.93 317.856L120.364 308.661V297.794Z" fill="#209C9C"/>
<path d="M114.096 297.378C114.096 306.149 106.423 313.26 96.9592 313.26C93.2133 313.26 89.748 312.146 86.9281 310.256C84.1073 308.366 85.6707 306.439 85.6707 301.139C86.9281 294.032 90.8351 286.926 100.299 286.926C106.066 286.926 108.942 285.588 110.933 288.182C112.925 290.777 114.096 293.951 114.096 297.378Z" fill="#25ABAC"/>
<ellipse cx="103.643" cy="297.793" rx="6.26946" ry="5.43353" fill="#63C7BF"/>
<circle cx="103.644" cy="303.644" r="16.6443" stroke="#7E073F" stroke-width="6"/>
<path d="M120.364 244.792L109.915 235.179L104.063 240.195L92.7781 250.644L88.1805 259.003L95.2859 264.855L104.063 268.616L114.93 264.855L120.364 255.659V244.792Z" fill="#D71B55"/>
<path d="M114.096 244.377C114.096 253.149 106.423 260.26 96.9592 260.26C93.2133 260.26 89.748 259.146 86.9281 257.256C84.1073 255.366 85.6707 253.439 85.6707 248.139C86.9281 241.031 90.8351 233.926 100.299 233.926C106.066 233.926 108.942 232.587 110.933 235.182C112.925 237.777 114.096 240.95 114.096 244.377Z" fill="#EF3574"/>
<ellipse cx="103.643" cy="244.792" rx="6.26946" ry="5.43353" fill="#F36386"/>
<circle cx="103.644" cy="250.644" r="16.6443" stroke="#7E073F" stroke-width="6"/>
<path d="M168.364 244.792L157.915 235.179L152.063 240.195L140.778 250.644L136.181 259.003L143.286 264.855L152.063 268.616L162.93 264.855L168.364 255.659V244.792Z" fill="#D71B55"/>
<path d="M162.096 244.377C162.096 253.149 154.423 260.26 144.959 260.26C141.213 260.26 137.748 259.146 134.928 257.256C132.107 255.366 133.671 253.439 133.671 248.139C134.928 241.031 138.835 233.926 148.299 233.926C154.066 233.926 156.942 232.587 158.933 235.182C160.925 237.777 162.096 240.95 162.096 244.377Z" fill="#EF3574"/>
<ellipse cx="151.643" cy="244.792" rx="6.26946" ry="5.43353" fill="#F36386"/>
<circle cx="151.644" cy="250.644" r="16.6443" stroke="#7E073F" stroke-width="6"/>
<path d="M168.361 191.793L157.912 182.18L152.061 187.195L140.776 197.644L136.178 206.004L143.283 211.855L152.061 215.617L162.928 211.855L168.361 202.66V191.793Z" fill="#F69022"/>
<path d="M162.095 191.376C162.095 200.148 154.423 207.259 144.959 207.259C141.213 207.259 137.747 206.145 134.928 204.255C132.107 202.365 133.67 200.438 133.67 195.138C134.928 188.03 138.835 180.925 148.299 180.925C154.066 180.925 156.942 179.586 158.933 182.181C160.924 184.776 162.095 187.949 162.095 191.376Z" fill="#FEBC42"/>
<ellipse cx="151.643" cy="191.792" rx="6.26946" ry="5.43353" fill="#FAE6A1"/>
<circle cx="151.644" cy="197.644" r="16.6443" stroke="#7E073F" stroke-width="6"/>
<path d="M265.361 191.793L254.912 182.18L249.061 187.195L237.776 197.644L233.178 206.004L240.283 211.855L249.061 215.617L259.928 211.855L265.361 202.66V191.793Z" fill="#F69022"/>
<path d="M259.095 191.376C259.095 200.148 251.423 207.259 241.959 207.259C238.213 207.259 234.747 206.145 231.928 204.255C229.107 202.365 230.67 200.438 230.67 195.138C231.928 188.03 235.835 180.925 245.299 180.925C251.066 180.925 253.942 179.586 255.933 182.181C257.924 184.776 259.095 187.949 259.095 191.376Z" fill="#FEBC42"/>
<ellipse cx="248.643" cy="191.792" rx="6.26946" ry="5.43353" fill="#FAE6A1"/>
<circle cx="248.644" cy="197.644" r="16.6443" stroke="#7E073F" stroke-width="6"/>
<path d="M216.599 191.793L206.15 182.18L200.298 187.195L189.013 197.644L184.416 206.004L191.521 211.855L200.298 215.617L211.165 211.855L216.599 202.66V191.793Z" fill="#F69022"/>
<path d="M210.335 191.376C210.335 200.148 202.663 207.259 193.198 207.259C189.452 207.259 185.987 206.145 183.167 204.255C180.346 202.365 181.91 200.438 181.91 195.138C183.167 188.03 187.074 180.925 196.538 180.925C202.305 180.925 205.181 179.586 207.173 182.181C209.164 184.776 210.335 187.949 210.335 191.376Z" fill="#FEBC42"/>
<ellipse cx="199.882" cy="191.792" rx="6.26946" ry="5.43353" fill="#FAE6A1"/>
<circle cx="199.881" cy="197.644" r="16.6443" stroke="#7E073F" stroke-width="6"/>
<path d="M313.599 191.793L303.15 182.18L297.298 187.195L286.013 197.644L281.416 206.004L288.521 211.855L297.298 215.617L308.165 211.855L313.599 202.66V191.793Z" fill="#F69022"/>
<path d="M307.335 191.376C307.335 200.148 299.663 207.259 290.198 207.259C286.452 207.259 282.987 206.145 280.167 204.255C277.346 202.365 278.91 200.438 278.91 195.138C280.167 188.03 284.074 180.925 293.538 180.925C299.305 180.925 302.181 179.586 304.173 182.181C306.164 184.776 307.335 187.949 307.335 191.376Z" fill="#FEBC42"/>
<ellipse cx="296.882" cy="191.792" rx="6.26946" ry="5.43353" fill="#FAE6A1"/>
<circle cx="296.881" cy="197.644" r="16.6443" stroke="#7E073F" stroke-width="6"/>
<path d="M120.364 191.793L109.915 182.18L104.063 187.195L92.7781 197.644L88.1805 206.004L95.2859 211.855L104.063 215.617L114.93 211.855L120.364 202.66V191.793Z" fill="#F69022"/>
<path d="M114.096 191.376C114.096 200.148 106.423 207.259 96.9592 207.259C93.2133 207.259 89.748 206.145 86.9281 204.255C84.1073 202.365 85.6707 200.438 85.6707 195.138C86.9281 188.03 90.8351 180.925 100.299 180.925C106.066 180.925 108.942 179.586 110.933 182.181C112.925 184.776 114.096 187.949 114.096 191.376Z" fill="#FEBC42"/>
<ellipse cx="103.643" cy="191.792" rx="6.26946" ry="5.43353" fill="#FAE6A1"/>
<circle cx="103.644" cy="197.644" r="16.6443" stroke="#7E073F" stroke-width="6"/>
<path d="M120.364 138.793L109.915 129.18L104.063 134.195L92.7781 144.644L88.1805 153.004L95.2859 158.855L104.063 162.617L114.93 158.855L120.364 149.66V138.793Z" fill="#65AD76"/>
<path d="M114.098 138.377C114.098 147.148 106.425 154.259 96.9612 154.259C93.2152 154.259 89.7499 153.145 86.93 151.255C84.1092 149.365 85.6726 147.438 85.6726 142.138C86.93 135.031 90.8371 127.925 100.301 127.925C106.068 127.925 108.944 126.587 110.935 129.181C112.927 131.776 114.098 134.95 114.098 138.377Z" fill="#77CC8B"/>
<ellipse cx="103.643" cy="138.792" rx="6.26946" ry="5.43353" fill="#A3DFB1"/>
<circle cx="103.644" cy="144.645" r="16.6443" stroke="#7E073F" stroke-width="6"/>
<path d="M168.364 138.793L157.915 129.18L152.063 134.195L140.778 144.644L136.181 153.004L143.286 158.855L152.063 162.617L162.93 158.855L168.364 149.66V138.793Z" fill="#65AD76"/>
<path d="M162.098 138.377C162.098 147.148 154.425 154.259 144.961 154.259C141.215 154.259 137.75 153.145 134.93 151.255C132.109 149.365 133.673 147.438 133.673 142.138C134.93 135.031 138.837 127.925 148.301 127.925C154.068 127.925 156.944 126.587 158.935 129.181C160.927 131.776 162.098 134.95 162.098 138.377Z" fill="#77CC8B"/>
<ellipse cx="151.643" cy="138.792" rx="6.26946" ry="5.43353" fill="#A3DFB1"/>
<circle cx="151.644" cy="144.645" r="16.6443" stroke="#7E073F" stroke-width="6"/>
<path d="M120.364 85.7924L109.915 76.1792L104.063 81.1948L92.7781 91.6439L88.1805 100.003L95.2859 105.855L104.063 109.616L114.93 105.855L120.364 96.6594V85.7924Z" fill="#385CC0"/>
<path d="M114.098 85.3752C114.098 94.147 106.425 101.258 96.9612 101.258C93.2152 101.258 89.7499 100.144 86.93 98.2538C84.1092 96.3638 85.6726 94.4367 85.6726 89.1369C86.93 82.0292 90.8371 74.9239 100.301 74.9239C106.068 74.9239 108.944 73.5851 110.935 76.18C112.927 78.775 114.098 81.9484 114.098 85.3752Z" fill="#4974EC"/>
<ellipse cx="103.643" cy="85.7914" rx="6.26946" ry="5.43353" fill="#7093F3"/>
<circle cx="103.644" cy="91.6438" r="16.6443" stroke="#7E073F" stroke-width="6"/>
<path d="M168.48 85.7924L158.031 76.1792L152.18 81.1948L140.895 91.6439L136.297 100.003L143.403 105.855L152.18 109.616L163.047 105.855L168.48 96.6594V85.7924Z" fill="#385CC0"/>
<path d="M162.216 85.3752C162.216 94.147 154.544 101.258 145.08 101.258C141.334 101.258 137.869 100.144 135.049 98.2538C132.228 96.3638 133.791 94.4367 133.791 89.1369C135.049 82.0292 138.956 74.9239 148.42 74.9239C154.187 74.9239 157.063 73.5851 159.054 76.18C161.045 78.775 162.216 81.9484 162.216 85.3752Z" fill="#4974EC"/>
<ellipse cx="151.762" cy="85.7914" rx="6.26946" ry="5.43353" fill="#7093F3"/>
<circle cx="151.763" cy="91.6438" r="16.6443" stroke="#7E073F" stroke-width="6"/>
<path d="M217.361 85.7924L206.912 76.1792L201.061 81.1948L189.776 91.6439L185.178 100.003L192.283 105.855L201.061 109.616L211.928 105.855L217.361 96.6594V85.7924Z" fill="#385CC0"/>
<path d="M211.097 85.3752C211.097 94.147 203.425 101.258 193.961 101.258C190.215 101.258 186.749 100.144 183.929 98.2538C181.109 96.3638 182.672 94.4367 182.672 89.1369C183.929 82.0292 187.837 74.9239 197.301 74.9239C203.068 74.9239 205.943 73.5851 207.935 76.18C209.926 78.775 211.097 81.9484 211.097 85.3752Z" fill="#4974EC"/>
<ellipse cx="200.643" cy="85.7914" rx="6.26946" ry="5.43353" fill="#7093F3"/>
<circle cx="200.644" cy="91.6438" r="16.6443" stroke="#7E073F" stroke-width="6"/>
<path d="M264.361 85.7924L253.912 76.1792L248.061 81.1948L236.776 91.6439L232.178 100.003L239.283 105.855L248.061 109.616L258.928 105.855L264.361 96.6594V85.7924Z" fill="#385CC0"/>
<path d="M258.097 85.3752C258.097 94.147 250.425 101.258 240.961 101.258C237.215 101.258 233.749 100.144 230.929 98.2538C228.109 96.3638 229.672 94.4367 229.672 89.1369C230.929 82.0292 234.837 74.9239 244.301 74.9239C250.068 74.9239 252.943 73.5851 254.935 76.18C256.926 78.775 258.097 81.9484 258.097 85.3752Z" fill="#4974EC"/>
<ellipse cx="247.643" cy="85.7914" rx="6.26946" ry="5.43353" fill="#7093F3"/>
<circle cx="247.644" cy="91.6438" r="16.6443" stroke="#7E073F" stroke-width="6"/>
<path d="M120.364 32.7929L109.915 23.1797L104.063 28.1953L92.7781 38.6443L88.1805 47.0036L95.2859 52.8551L104.063 56.6168L114.93 52.8551L120.364 43.6599V32.7929Z" fill="#9756FF"/>
<path d="M114.098 32.3757C114.098 41.1474 106.425 48.2583 96.9612 48.2583C93.2152 48.2583 89.7499 47.1443 86.93 45.2543C84.1092 43.3643 85.6726 41.4372 85.6726 36.1374C86.93 29.0297 90.8371 21.9243 100.301 21.9243C106.068 21.9243 108.944 20.5856 110.935 23.1805C112.927 25.7754 114.098 28.9488 114.098 32.3757Z" fill="#B180FF"/>
<ellipse cx="103.643" cy="32.7914" rx="6.26946" ry="5.43353" fill="#CFB1FF"/>
<circle cx="103.644" cy="38.6443" r="16.6443" stroke="#7E073F" stroke-width="6"/>
<path d="M264.364 32.7929L253.915 23.1797L248.063 28.1953L236.778 38.6443L232.181 47.0036L239.286 52.8551L248.063 56.6168L258.93 52.8551L264.364 43.6599V32.7929Z" fill="#9756FF"/>
<path d="M258.098 32.3757C258.098 41.1474 250.426 48.2583 240.961 48.2583C237.215 48.2583 233.75 47.1443 230.93 45.2543C228.109 43.3643 229.673 41.4372 229.673 36.1374C230.93 29.0297 234.837 21.9243 244.302 21.9243C250.068 21.9243 252.944 20.5856 254.936 23.1805C256.927 25.7754 258.098 28.9488 258.098 32.3757Z" fill="#B180FF"/>
<ellipse cx="247.643" cy="32.7914" rx="6.26946" ry="5.43353" fill="#CFB1FF"/>
<circle cx="247.645" cy="38.6443" r="16.6443" stroke="#7E073F" stroke-width="6"/>
<path d="M168.48 32.7929L158.031 23.1797L152.18 28.1953L140.895 38.6443L136.297 47.0036L143.403 52.8551L152.18 56.6168L163.047 52.8551L168.48 43.6599V32.7929Z" fill="#9756FF"/>
<path d="M162.216 32.3757C162.216 41.1474 154.544 48.2583 145.08 48.2583C141.334 48.2583 137.869 47.1443 135.049 45.2543C132.228 43.3643 133.791 41.4372 133.791 36.1374C135.049 29.0297 138.956 21.9243 148.42 21.9243C154.187 21.9243 157.063 20.5856 159.054 23.1805C161.045 25.7754 162.216 28.9488 162.216 32.3757Z" fill="#B180FF"/>
<ellipse cx="151.762" cy="32.7914" rx="6.26946" ry="5.43353" fill="#CFB1FF"/>
<circle cx="151.763" cy="38.6443" r="16.6443" stroke="#7E073F" stroke-width="6"/>
<path d="M312.836 32.7929L302.387 23.1797L296.535 28.1953L285.25 38.6443L280.653 47.0036L287.758 52.8551L296.535 56.6168L307.403 52.8551L312.836 43.6599V32.7929Z" fill="#9756FF"/>
<path d="M306.572 32.3757C306.572 41.1474 298.9 48.2583 289.435 48.2583C285.689 48.2583 282.224 47.1443 279.404 45.2543C276.583 43.3643 278.147 41.4372 278.147 36.1374C279.404 29.0297 283.311 21.9243 292.776 21.9243C298.542 21.9243 301.418 20.5856 303.41 23.1805C305.401 25.7754 306.572 28.9488 306.572 32.3757Z" fill="#B180FF"/>
<ellipse cx="296.118" cy="32.7914" rx="6.26946" ry="5.43353" fill="#CFB1FF"/>
<circle cx="296.119" cy="38.6443" r="16.6443" stroke="#7E073F" stroke-width="6"/>
<path d="M216.599 32.7929L206.15 23.1797L200.298 28.1953L189.013 38.6443L184.416 47.0036L191.521 52.8551L200.298 56.6168L211.165 52.8551L216.599 43.6599V32.7929Z" fill="#9756FF"/>
<path d="M210.337 32.3757C210.337 41.1474 202.664 48.2583 193.2 48.2583C189.454 48.2583 185.989 47.1443 183.169 45.2543C180.348 43.3643 181.912 41.4372 181.912 36.1374C183.169 29.0297 187.076 21.9243 196.54 21.9243C202.307 21.9243 205.183 20.5856 207.174 23.1805C209.166 25.7754 210.337 28.9488 210.337 32.3757Z" fill="#B180FF"/>
<ellipse cx="199.882" cy="32.7914" rx="6.26946" ry="5.43353" fill="#CFB1FF"/>
<circle cx="199.881" cy="38.6443" r="16.6443" stroke="#7E073F" stroke-width="6"/>
<path d="M360.955 32.7929L350.506 23.1797L344.654 28.1953L333.369 38.6443L328.771 47.0036L335.877 52.8551L344.654 56.6168L355.521 52.8551L360.955 43.6599V32.7929Z" fill="#9756FF"/>
<path d="M354.691 32.3757C354.691 41.1474 347.018 48.2583 337.554 48.2583C333.808 48.2583 330.343 47.1443 327.523 45.2543C324.702 43.3643 326.265 41.4372 326.265 36.1374C327.523 29.0297 331.43 21.9243 340.894 21.9243C346.661 21.9243 349.537 20.5856 351.528 23.1805C353.52 25.7754 354.691 28.9488 354.691 32.3757Z" fill="#B180FF"/>
<ellipse cx="344.236" cy="32.7914" rx="6.26946" ry="5.43353" fill="#CFB1FF"/>
<circle cx="344.237" cy="38.6443" r="16.6443" stroke="#7E073F" stroke-width="6"/>
<path d="M457.361 32.7929L446.912 23.1797L441.06 28.1953L429.775 38.6443L425.178 47.0036L432.283 52.8551L441.06 56.6168L451.927 52.8551L457.361 43.6599V32.7929Z" fill="#9756FF"/>
<path d="M451.097 32.3757C451.097 41.1474 443.424 48.2583 433.96 48.2583C430.214 48.2583 426.749 47.1443 423.929 45.2543C421.108 43.3643 422.672 41.4372 422.672 36.1374C423.929 29.0297 427.836 21.9243 437.3 21.9243C443.067 21.9243 445.943 20.5856 447.934 23.1805C449.926 25.7754 451.097 28.9488 451.097 32.3757Z" fill="#B180FF"/>
<ellipse cx="440.642" cy="32.7914" rx="6.26946" ry="5.43353" fill="#CFB1FF"/>
<circle cx="440.643" cy="38.6443" r="16.6443" stroke="#7E073F" stroke-width="6"/>
<path d="M409.075 32.7929L398.626 23.1797L392.775 28.1953L381.49 38.6443L376.892 47.0036L383.997 52.8551L392.775 56.6168L403.642 52.8551L409.075 43.6599V32.7929Z" fill="#9756FF"/>
<path d="M402.809 32.3757C402.809 41.1474 395.137 48.2583 385.673 48.2583C381.927 48.2583 378.461 47.1443 375.641 45.2543C372.821 43.3643 374.384 41.4372 374.384 36.1374C375.641 29.0297 379.548 21.9243 389.013 21.9243C394.78 21.9243 397.655 20.5856 399.647 23.1805C401.638 25.7754 402.809 28.9488 402.809 32.3757Z" fill="#B180FF"/>
<ellipse cx="392.357" cy="32.7914" rx="6.26946" ry="5.43353" fill="#CFB1FF"/>
<circle cx="392.356" cy="38.6443" r="16.6443" stroke="#7E073F" stroke-width="6"/>
<path d="M505.481 32.7929L495.032 23.1797L489.181 28.1953L477.896 38.6443L473.298 47.0036L480.404 52.8551L489.181 56.6168L500.048 52.8551L505.481 43.6599V32.7929Z" fill="#9756FF"/>
<path d="M499.215 32.3757C499.215 41.1474 491.543 48.2583 482.079 48.2583C478.333 48.2583 474.868 47.1443 472.048 45.2543C469.227 43.3643 470.79 41.4372 470.79 36.1374C472.048 29.0297 475.955 21.9243 485.419 21.9243C491.186 21.9243 494.062 20.5856 496.053 23.1805C498.044 25.7754 499.215 28.9488 499.215 32.3757Z" fill="#B180FF"/>
<ellipse cx="488.763" cy="32.7914" rx="6.26946" ry="5.43353" fill="#CFB1FF"/>
<circle cx="488.762" cy="38.6443" r="16.6443" stroke="#7E073F" stroke-width="6"/>
<path d="M36.4375 13.71H66.4869L66.4893 345.442L58.5349 361.875H36.4375V13.71Z" fill="#F19A7E"/>
<path d="M47.263 15.7643H65.8215C65.8215 7.02173 59.979 5.12752 57.0578 5.27322H34.3751C27.7766 5.27322 25.4396 12.2672 25.0959 15.7643V352.117L37.4682 360.847L37.4682 26.6924C37.4682 17.9499 43.9981 15.7643 47.263 15.7643Z" fill="#FABE99"/>
<path d="M65.9297 350.645C65.9297 357.548 60.3332 363.144 53.4297 363.145L38.0019 363.145C31.0986 363.144 25.502 357.548 25.5019 350.645L25.5 16.3584C25.5 9.45488 31.0965 3.85846 38 3.8584L53.4277 3.8584C60.3311 3.85857 65.9277 9.45498 65.9277 16.3584L65.9297 350.645Z" stroke="#7E073F" stroke-width="7"/>
<path d="M537.438 13.71H567.487L567.489 345.442L559.535 361.875H537.438V13.71Z" fill="#F19A7E"/>
<path d="M548.263 15.7643H566.822C566.822 7.02173 560.979 5.12752 558.058 5.27322H535.375C528.777 5.27322 526.44 12.2672 526.096 15.7643V352.117L538.468 360.847L538.468 26.6924C538.468 17.9499 544.998 15.7643 548.263 15.7643Z" fill="#FABE99"/>
<path d="M566.93 350.645C566.93 357.548 561.333 363.144 554.43 363.145L539.002 363.145C532.099 363.144 526.502 357.548 526.502 350.645L526.5 16.3584C526.5 9.45488 532.096 3.85846 539 3.8584L554.428 3.8584C561.331 3.85857 566.928 9.45498 566.928 16.3584L566.93 350.645Z" stroke="#7E073F" stroke-width="7"/>
<path d="M25.1119 348.066L588.5 348.634V373.745C588.5 381.236 583.393 384.244 580.839 384.812L11.0664 384.244V361.261C11.0664 348.662 20.43 348.066 25.1119 348.066Z" fill="#F19A7E"/>
<path d="M561.458 373.901C574.46 373.901 576 364.862 576 359.267V347.216H589.259V372.179C589.259 380.787 582.701 384.661 579.422 385.522L15.5766 385.521C4.28492 385.521 2.60257 377.774 3.17285 373.9L561.458 373.901Z" fill="#EC725B"/>
<path d="M24.024 348.492H587.5C584.776 341.001 577.853 339.412 574.731 339.554L24.024 339.554C8.02081 339.554 3.73617 345.513 3.59426 348.492C3.45238 354.593 3.25376 368.411 3.59426 374.881C3.93475 381.35 9.12731 383.819 11.681 384.244V362.538C11.681 351.301 19.9097 348.492 24.024 348.492Z" fill="#FCD9BD"/>
<path d="M17 340.5H575C582.456 340.5 588.5 346.544 588.5 354V370C588.5 377.456 582.456 383.5 575 383.5H17C9.54416 383.5 3.5 377.456 3.5 370V354C3.5 346.544 9.54416 340.5 17 340.5Z" stroke="#7E073F" stroke-width="7"/>
</svg>
