<svg width="34" height="34" viewBox="0 0 34 34" fill="none" xmlns="http://www.w3.org/2000/svg">
<path d="M31.4681 11.9363L22.4256 3.61719L17.3617 7.95761L7.59579 17.0002L3.61707 24.2342L9.766 29.298L17.3617 32.5534L26.766 29.298L31.4681 21.3406V11.9363Z" fill="#9756FF"/>
<path d="M26.0459 11.5752C26.0459 19.1662 19.4064 25.3199 11.2162 25.3199C7.97442 25.3199 4.97563 24.3559 2.53531 22.7202C0.0941769 21.0846 1.44713 19.417 1.44713 14.8305C2.53531 8.67964 5.91642 2.5307 14.1067 2.5307C19.0972 2.5307 21.586 1.37219 23.3093 3.61778C25.0326 5.86342 26.0459 8.60964 26.0459 11.5752Z" fill="#B180FF"/>
<ellipse cx="16.9985" cy="11.9355" rx="5.42553" ry="4.70213" fill="#CFB1FF"/>
<circle cx="17" cy="17" r="15" stroke="black" stroke-width="4"/>
</svg>
