<svg width="34" height="34" viewBox="0 0 34 34" fill="none" xmlns="http://www.w3.org/2000/svg">
<path d="M31.4678 11.9358L22.4252 3.6167L17.3614 7.95712L7.59545 16.9997L3.61673 24.2337L9.76567 29.2976L17.3614 32.5529L26.7657 29.2976L31.4678 21.3401V11.9358Z" fill="#D71B55"/>
<path d="M26.0449 11.5757C26.0449 19.1667 19.4054 25.3204 11.2151 25.3204C7.97337 25.3204 4.97457 24.3564 2.53425 22.7207C0.0931241 21.0851 1.44608 19.4175 1.44608 14.831C2.53425 8.68013 5.91536 2.53119 14.1056 2.53119C19.0962 2.53119 21.585 1.37267 23.3082 3.61827C25.0315 5.8639 26.0449 8.61013 26.0449 11.5757Z" fill="#EF3574"/>
<ellipse cx="16.9994" cy="11.9355" rx="5.42553" ry="4.70213" fill="#F36386"/>
<circle cx="17" cy="17" r="15" stroke="black" stroke-width="4"/>
</svg>
