<svg width="34" height="34" viewBox="0 0 34 34" fill="none" xmlns="http://www.w3.org/2000/svg">
<path d="M31.4664 11.9354L22.4239 3.61621L17.3601 7.95664L7.5941 16.9992L3.61537 24.2332L9.76431 29.2971L17.3601 32.5524L26.7643 29.2971L31.4664 21.3396V11.9354Z" fill="#385CC0"/>
<path d="M26.0459 11.5743C26.0459 19.1652 19.4064 25.3189 11.2162 25.3189C7.97442 25.3189 4.97563 24.3549 2.53531 22.7193C0.0941769 21.0836 1.44713 19.416 1.44713 14.8296C2.53531 8.67867 5.91642 2.52973 14.1067 2.52973C19.0972 2.52973 21.586 1.37121 23.3093 3.6168C25.0326 5.86244 26.0459 8.60866 26.0459 11.5743Z" fill="#4974EC"/>
<ellipse cx="16.9985" cy="11.9346" rx="5.42553" ry="4.70213" fill="#7093F3"/>
<circle cx="17" cy="17" r="15" stroke="black" stroke-width="4"/>
</svg>
